<svg xmlns="http://www.w3.org/2000/svg" height="50" width="50" version="1.1">
	<circle fill="#5f259f" r="17.9" id="ellipse30" cy="24" cx="17.9"/>
	<g transform="translate(-0.0248 6.071)">
		<path id="path36" d="M26.0248 13.229c0-.7-.6-1.3-1.3-1.3h-2.4l-5.5-6.3c-.5-.6-1.3-.8-2.1-.6l-1.9.6c-.3.1-.4.5-.2.7l6 5.7h-9.1c-.3 0-.5.2-.5.5v1c0 .7.6 1.3 1.3 1.3h1.4v4.8c0 3.6 1.9 5.7 5.1 5.7 1 0 1.8-.1 2.8-.5v3.2c0 .9.7 1.6 1.6 1.6h1.4c.3 0 .6-.3.6-.6v-14.3h2.3c.3 0 .5-.2.5-.5zm-6.4 8.6c-.6.3-1.4.4-2 .4-1.6 0-2.4-.8-2.4-2.6v-4.8h4.4z" fill="#fff"/>
	</g>
</svg>